REM GENRE "Black Metal"
REM DATE 2006
REM DISCID 690AB408
REM COMMENT "ExactAudioCopy v0.99pb5"
PERFORMER "Alastor"
TITLE "Silva Nordica "
FILE "Alastor - Silva Nordica.flac" WAVE
  TRACK 01 AUDIO
    TITLE "01. Summer's End"
    PERFORMER "Alastor"
    FLAGS DCP
    INDEX 01 00:00:00
  TRACK 02 AUDIO
    TITLE "02. Zero Death "
    PERFORMER "Alastor"
    FLAGS DCP
    INDEX 00 01:33:36
    INDEX 01 01:35:36
  TRACK 03 AUDIO
    TITLE "03. Falckenstain "
    PERFORMER "Alastor"
    FLAGS DCP
    INDEX 00 08:01:72
    INDEX 01 08:03:72
  TRACK 04 AUDIO
    TITLE "04. Haichenbach "
    PERFORMER "Alastor"
    FLAGS DCP
    INDEX 00 16:42:13
    INDEX 01 16:44:13
  TRACK 05 AUDIO
    TITLE "05. Prologue "
    PERFORMER "Alastor"
    FLAGS DCP
    INDEX 00 23:52:09
    INDEX 01 23:54:09
  TRACK 06 AUDIO
    TITLE "06. Silva Nordica "
    PERFORMER "Alastor"
    FLAGS DCP
    INDEX 00 24:57:00
    INDEX 01 24:59:00
  TRACK 07 AUDIO
    TITLE "07. Back from the Forest "
    PERFORMER "Alastor"
    FLAGS DCP
    INDEX 00 33:03:21
    INDEX 01 33:05:21
  TRACK 08 AUDIO
    TITLE "08. Comfort in Silence "
    PERFORMER "Alastor"
    FLAGS DCP
    INDEX 00 39:31:73
    INDEX 01 39:33:73
